<?xml version="1.0" encoding="utf-8"?>
<!-- Generator: Adobe Illustrator 19.1.0, SVG Export Plug-In . SVG Version: 6.00 Build 0)  -->
<svg version="1.1" id="Layer_1" xmlns:sketch="http://www.bohemiancoding.com/sketch/ns"
	 xmlns="http://www.w3.org/2000/svg" xmlns:xlink="http://www.w3.org/1999/xlink" x="0px" y="0px" viewBox="-319 221 60 60"
	 style="enable-background:new -319 221 60 60;" xml:space="preserve">
<style type="text/css">
	.st0{fill:#00356B;}
</style>
<title>meetup</title>
<desc>Created with Sketch.</desc>
<g id="Page-1" sketch:type="MSPage">
	<g id="meetup" sketch:type="MSLayerGroup">
		<g id="Group" sketch:type="MSShapeGroup">
			<path id="Shape" class="st0" d="M-297.4,250.4c0-0.9,0-1.7-0.1-2.5c-0.1,0-0.1,0-0.2-0.1c-0.2,0.5-0.4,1-0.6,1.6
				C-298.5,250.3-298.5,250.3-297.4,250.4L-297.4,250.4z"/>
			<path id="Shape_1_" class="st0" d="M-290.3,250.2c0.1-0.8,0-1.6,0-2.4c-0.1,0-0.1,0-0.2,0c-0.4,1-0.7,2-1.1,3
				C-290.4,251.2-290.4,251.2-290.3,250.2L-290.3,250.2z"/>
			<path id="Shape_2_" class="st0" d="M-262.2,221h-53.6c-1.8,0-3.2,1.4-3.2,3.2v53.6c0,1.8,1.4,3.2,3.2,3.2h53.6
				c1.8,0,3.2-1.4,3.2-3.2v-53.6C-259,222.4-260.4,221-262.2,221L-262.2,221z M-302.7,256.6c-0.4,0.1-0.6,0-0.7-0.4
				c-0.7-2.3-1.4-4.5-2.1-6.9c0,0.3-0.1,0.6-0.1,0.8c-0.1,1.4-0.1,2.7-0.2,4.1c0,0.3-0.1,0.7-0.2,1c-0.1,0.2-0.4,0.4-0.6,0.5
				c-0.3,0.1-0.7,0-1,0.1c-0.8,0.3-1.3-0.2-1.7-0.8c-0.5-0.8-1-1.6-1.5-2.4c0,0-0.1,0-0.1,0c0.1,0.7,0.2,1.5,0.3,2.2
				c0.1,0.4-0.1,0.7-0.5,0.8c-0.1,0-0.2,0.1-0.2,0.1c-1.6,0.6-1.9,0.4-2.2-1.3c-0.4-2.5-0.3-4.9-0.2-7.4c0-0.1,0.2-0.3,0.3-0.4
				c0.3-0.1,0.6-0.2,0.9-0.2c1.2-0.2,1.5,0,2.1,1c0.6,1.1,1.1,2.1,1.7,3.2c0.1,0.1,0.2,0.3,0.3,0.5c0.3-1.2,0.4-2.3,0.7-3.4
				c0.3-1,0.7-2,1.1-3c0.1-0.2,0.4-0.4,0.6-0.4c0.6,0,1.2,0,1.7,0.2c0.3,0.1,0.6,0.6,0.7,0.9c0.4,1.3,0.7,2.6,1,3.9
				c0.5,2.3,1,4.5,1.6,6.9C-301.6,256.3-302.2,256.4-302.7,256.6L-302.7,256.6z M-299.6,255.7c-1.1-0.7-1.6-1.6-1.5-2.9
				c0-1.5,0-2.9,0.4-4.4c0.3-1.2,1.1-1.9,2-2.7c0.9-0.8,1.7-0.5,2.6-0.3c1,0.2,1.2,0.9,1.3,1.7c0.1,1.4,0.4,2.9,0,4.3
				c-0.1,0.4-0.2,0.5-0.6,0.5c-1-0.1-2-0.1-3.1-0.2c-0.1,1-0.2,1.9,0.4,2.8c0.5,0.8,1.3,1,2.2,0.6c0.8-0.4,1.7-0.2,2.4,0.5
				C-295.1,256.8-298.1,256.7-299.6,255.7L-299.6,255.7z M-289.9,256.2c-0.5-0.1-1-0.1-1.4-0.2c-1.7-0.4-2.7-1.9-2.8-3.7
				c-0.1-1.7,0.4-3.3,1-4.8c0.5-1,1.4-1.9,2.2-2.8c0.1-0.2,0.6-0.2,0.9-0.1c0.6,0.2,1.2,0.4,1.7,0.6c0.2,0.1,0.4,0.4,0.4,0.7
				c0,0.9-0.2,1.9-0.3,2.8c-0.1,1.1-0.2,2.2-0.3,3.4c-1,0.6-2.1,0.2-3.2,0.1c-0.4,1.1,0.2,1.8,0.8,2.6c0.5,0.6,1.2,0.6,1.9,0.4
				c0.4-0.1,0.7-0.5,1.1-0.6c0.2-0.1,0.4-0.1,0.6-0.1c0.4,0.1,0.7,0.4,0.7,0.9C-287.6,256-288.7,256.5-289.9,256.2L-289.9,256.2z
				 M-280.1,251.3c-0.8,0.1-1.5,0.2-2.3,0.3c-0.3,0-0.5,0-0.5,0.4c0.1,0.7,0,1.5,0,2.2c0,0.7,0.1,1.5,0.1,2.3
				c-0.6,0.1-1.1,0.2-1.7,0.3c0-0.9-0.1-1.7-0.1-2.5c-0.1-0.8-0.1-1.6-0.2-2.5c-0.6,0-1.1-0.1-1.6-0.1c-0.5,0-0.8-0.2-0.8-0.7
				c0-0.6,0.4-0.7,0.9-0.7c0.4,0,0.9,0,1.3,0.1c-0.2-1.7-0.4-3.3-0.5-5c-0.1-1.2-0.1-2.4-0.1-3.5c0-1.2,0.6-1.5,1.7-1
				c1.2,0.5,1.1,0.6,1.1,1.8c0,1.9,0.1,3.8,0.1,5.7c0,0.4-0.1,0.8-0.1,1.3c0,0.2,0.1,0.3,0.2,0.5c0.1-0.1,0.2-0.3,0.3-0.4
				c0-0.4,0.3-0.6,0.6-0.4c0.7,0.5,1.2,1.1,1.9,1.6C-280,251.2-280.1,251.2-280.1,251.3L-280.1,251.3z M-275.1,255.5
				c-0.2,0.3-0.5,0.5-0.9,0.6c-0.6,0.1-1.2,0.2-1.8,0.2c-0.7,0-1.1-0.5-1.2-1.1c-0.3-1.5-0.6-3.1-0.9-4.7c-0.1-0.4-0.1-0.9,0-1.4
				c0-0.6,0.3-0.8,0.9-0.6c0.2,0.1,0.4,0.2,0.5,0.2c1.2,0.5,1.2,0.6,1.2,1.8c0,1.3,0.1,2.6,0.2,3.9c0,0.1,0.1,0.3,0.2,0.5
				c1.4-1.2,1.8-2.7,1.8-4.3c0-0.4-0.1-0.8-0.1-1.2c0-0.3,0.1-0.6,0.3-0.8c0.1-0.1,0.4-0.1,0.7,0c0.3,0.1,0.6,0.3,0.9,0.4
				c0.7,0.3,0.8,0.8,0.8,1.5c-0.1,1.5-0.8,2.6-1.7,3.7C-274.5,254.6-274.8,255.1-275.1,255.5L-275.1,255.5z M-266,253.2
				c-0.8,0.7-1.7,1.4-2.6,2.1c-0.3,0.2-0.8,0.3-1.2,0.5c-0.3,1.2-0.1,2.9,0.5,5.6c-0.7,0-1.3,0.1-2,0c-0.1,0-0.3-0.3-0.3-0.5
				c-0.2-1.6-0.5-3.2-0.7-4.8c0-0.3-0.2-0.6-0.4-0.8c-0.6-0.5-0.5-0.9,0.2-1.3c0.1-0.1,0.2-0.3,0.3-0.5c0.3-1.4,0.5-2.9,0.9-4.3
				c0.4-1.6,1.3-2.9,2.8-3.6c0.4-0.2,1-0.2,1.4-0.1c0.4,0.1,0.8,0.4,1.3,0.5c1.2,0.3,1.5,1.2,1.6,2.2
				C-264,250.1-264.4,251.9-266,253.2L-266,253.2z"/>
			<path id="Shape_3_" class="st0" d="M-269.7,253.5c2.4-1.3,3.6-3.9,2.7-6.3C-268.9,248.9-269.2,251.2-269.7,253.5L-269.7,253.5z"
				/>
		</g>
	</g>
</g>
</svg>
